<?xml version="1.0" encoding="UTF-8"?>
<svg version="1.1" xmlns="http://www.w3.org/2000/svg" width="2294" height="2869">
<path d="M0 0 C14.97200697 13.44905039 26.48315019 28.0244485 35.95849609 45.75927734 C36.47927734 46.68482422 37.00005859 47.61037109 37.53662109 48.56396484 C56.44601036 83.69561964 58.65133247 127.42454615 47.42602539 165.20532227 C39.76197223 189.74558804 27.61519256 210.09192822 9.95849609 228.75927734 C9.15154297 229.63068359 8.34458984 230.50208984 7.51318359 231.39990234 C-4.56160481 244.01535292 -21.69057939 258.63905805 -39.04150391 262.75927734 C-39.19386552 263.66880661 -39.19386552 263.66880661 -39.34930515 264.59671021 C-40.83266342 273.11639083 -42.76721471 281.52044775 -44.73071289 289.93896484 C-45.1043436 291.54968574 -45.47773967 293.16046108 -45.85092163 294.77128601 C-46.65417633 298.23623635 -47.45907164 301.70079992 -48.26525688 305.16506958 C-49.56290886 310.741342 -50.85674733 316.31849536 -52.15016174 321.89575195 C-54.22209658 330.82804109 -56.29648216 339.75975897 -58.37193304 348.69123173 C-62.45542407 366.264159 -66.53509418 383.83797328 -70.61254001 401.41230416 C-71.28923048 404.32881473 -71.96604239 407.2452971 -72.64285469 410.1617794 C-80.02358868 441.97007799 -87.33276152 473.79439163 -94.60772705 505.62702942 C-95.3690769 508.95838946 -96.13044977 512.28974424 -96.8918457 515.62109375 C-97.07467865 516.42109515 -97.2575116 517.22109655 -97.44588494 518.04534042 C-101.97548856 537.86293763 -106.55286941 557.66937062 -111.15380859 577.47052002 C-112.17526965 581.86798356 -113.19520072 586.26580205 -114.21533203 590.66357422 C-116.1560503 599.02911983 -118.09818026 607.39433658 -120.04150391 615.75927734 C-109.68917103 617.7055812 -109.68917103 617.7055812 -99.33300781 619.63134766 C-32.08750406 632.07688694 -32.08750406 632.07688694 -19.04150391 645.75927734 C-16.65633276 650.52961963 -17.79617834 657.50303281 -17.79150391 662.82177734 C-17.79049683 663.6149234 -17.78948975 664.40806946 -17.78845215 665.22525024 C-17.86651147 758.60601111 -31.4858978 851.81731367 -127.26416016 1123.15771484 C-128.79652522 1126.25830884 -130.31220083 1129.36673891 -131.82275391 1132.47802734 C-137.54534866 1144.19447829 -143.87930708 1155.52015033 -150.36816406 1166.82714844 C-152.03013461 1169.73935536 -153.67024731 1172.66275761 -155.30322266 1175.59130859 C-161.09887013 1185.97248493 -166.98126365 1196.27943464 -173.39282227 1206.29614258 C-175.95590196 1210.30381818 -178.34280709 1214.25232326 -180.37744141 1218.55615234 C-185.3753248 1228.72718677 -185.3753248 1228.72718677 -190.01806641 1230.52441406 C-194.12464558 1231.35969662 -198.21064836 1231.43028233 -202.38916016 1231.51708984 C-231.25489386 1232.17393308 -261.69032192 1247.16719338 -287.04150391 1259.75927734 C-288.5900708 1260.52353027 -288.5900708 1260.52353027 -290.16992188 1261.30322266 C-308.45547192 1270.43883811 -325.20117607 1281.54814984 -342.05273438 1293.04345703 C-348.02223994 1297.11369731 -354.02983687 1301.12668273 -360.04150391 1305.13427734 C-361.13495117 1305.86396729 -362.22839844 1306.59365723 -363.35498047 1307.34545898 C-374.81682711 1314.9744189 -386.40217756 1322.40457258 -398.04150391 1329.75927734 C-399.51151855 1330.68836914 -399.51151855 1330.68836914 -401.01123047 1331.63623047 C-426.71819666 1347.85336138 -452.74847821 1363.51402704 -479.04150391 1378.75927734 C-479.62845032 1379.10001282 -480.21539673 1379.44074829 -480.82012939 1379.79180908 C-498.09498067 1389.8178874 -515.53710582 1399.49647722 -533.21533203 1408.79705811 C-535.07428544 1409.7765501 -536.93113421 1410.75993845 -538.78759766 1411.74414062 C-612.46170019 1450.75927734 -612.46170019 1450.75927734 -628.04150391 1450.75927734 C-626.55852076 1447.18736096 -624.5890481 1445.25620831 -621.66650391 1442.75927734 C-612.85120162 1435.01558923 -604.61980967 1426.7198921 -597.04150391 1417.75927734 C-596.23455078 1416.85306641 -595.42759766 1415.94685547 -594.59619141 1415.01318359 C-578.86903208 1397.19819681 -560.41951249 1372.32028947 -561.72509766 1347.17724609 C-563.2412578 1335.59078767 -567.20156478 1324.37450066 -576.01416016 1316.31396484 C-587.91931938 1307.18438224 -602.49488491 1303.55202871 -617.29931641 1303.58349609 C-618.08130402 1303.58492111 -618.86329163 1303.58634613 -619.66897583 1303.58781433 C-627.62169956 1303.6673842 -635.46077222 1304.43640358 -643.36068726 1305.29797363 C-683.18952546 1309.56482263 -722.87976523 1311.04057224 -762.91113663 1311.0693512 C-765.74588967 1311.07173892 -768.58062645 1311.07705488 -771.41537476 1311.0826416 C-800.48633554 1311.1245991 -829.38596263 1310.31206693 -858.29150391 1306.94677734 C-859.02679321 1306.86312927 -859.76208252 1306.7794812 -860.51965332 1306.69329834 C-894.36696725 1302.81542966 -928.488031 1296.55837742 -959.22900391 1281.32177734 C-983.80140344 1269.23583203 -1010.87674446 1263.17018479 -1038.04150391 1260.75927734 C-1039.683125 1260.59298828 -1039.683125 1260.59298828 -1041.35791016 1260.42333984 C-1135.20010662 1252.37661616 -1233.97696266 1282.42686988 -1388.04150391 1352.75927734 C-1388.98968994 1353.32291992 -1388.98968994 1353.32291992 -1389.95703125 1353.89794922 C-1399.17037822 1359.46338578 -1407.06413604 1366.59393612 -1415.04150391 1373.75927734 C-1415.99669922 1374.61392578 -1416.95189453 1375.46857422 -1417.93603516 1376.34912109 C-1419.4946456 1377.74971573 -1421.05010325 1379.15384102 -1422.60009766 1380.56396484 C-1424.64780386 1382.40526226 -1426.71600013 1384.21586408 -1428.79541016 1386.02099609 C-1433.13852112 1389.81469871 -1437.34942189 1393.73758877 -1441.54150391 1397.69677734 C-1442.60304688 1398.69354492 -1442.60304688 1398.69354492 -1443.68603516 1399.71044922 C-1450.37032451 1406.00981148 -1456.92125027 1412.36358546 -1462.90478516 1419.33740234 C-1466.40991918 1423.31031476 -1470.05227769 1427.15718458 -1473.68676758 1431.01171875 C-1474.23437744 1431.59614746 -1474.7819873 1432.18057617 -1475.34619141 1432.78271484 C-1475.84103027 1433.30784668 -1476.33586914 1433.83297852 -1476.84570312 1434.37402344 C-1478.14862943 1435.76858553 -1478.14862943 1435.76858553 -1479.04150391 1437.75927734 C-1483.63830412 1437.25040647 -1486.5759714 1435.22887019 -1490.16650391 1432.50927734 C-1491.41233505 1431.59048525 -1492.65982102 1430.67393406 -1493.90869141 1429.75927734 C-1494.90787598 1429.02644531 -1494.90787598 1429.02644531 -1495.92724609 1428.27880859 C-1498.87450855 1426.16059132 -1501.88545764 1424.14277726 -1504.89794922 1422.11889648 C-1514.60859512 1415.5886753 -1523.86809258 1408.60811223 -1533.03564453 1401.34033203 C-1535.88764094 1399.09233681 -1538.77679079 1396.89609102 -1541.66650391 1394.69677734 C-1553.18914563 1385.84436998 -1564.38255672 1376.57704278 -1575.42626953 1367.13623047 C-1577.08984934 1365.71806389 -1578.76046267 1364.30852418 -1580.43212891 1362.89990234 C-1588.46697784 1356.10483863 -1596.20094462 1349.03588614 -1603.84814453 1341.80908203 C-1606.02213224 1339.77738114 -1608.21848632 1337.77136983 -1610.41633606 1335.76556396 C-1617.95946751 1328.86332632 -1625.23767776 1321.71698403 -1632.45507812 1314.47607422 C-1634.43196401 1312.4937749 -1636.41421429 1310.51695102 -1638.39697266 1308.54052734 C-1649.5238681 1297.41946753 -1649.5238681 1297.41946753 -1654.56835938 1291.47753906 C-1657.23805949 1288.36362633 -1660.0955112 1285.42301772 -1662.91650391 1282.44677734 C-1667.83644164 1277.21979074 -1672.49525073 1271.90064873 -1676.97509766 1266.29052734 C-1679.04263173 1263.75789581 -1681.20263732 1261.35196574 -1683.41650391 1258.94677734 C-1687.39833977 1254.57226908 -1691.05892474 1250.0139866 -1694.68041992 1245.34277344 C-1697.64195874 1241.52613166 -1700.6611022 1237.76716017 -1703.73388672 1234.03955078 C-1710.94274865 1225.28376007 -1717.70802561 1216.24721684 -1724.36230469 1207.06494141 C-1725.89571078 1204.95946203 -1727.44674576 1202.8688199 -1729.00634766 1200.78271484 C-1785.21995107 1125.06034262 -1827.90045656 1038.52568821 -1859.04150391 945.75927734 C-1859.42016602 944.6379541 -1859.79882812 943.51663086 -1860.18896484 942.36132812 C-1888.18929032 859.10103682 -1902.5858774 771.25201419 -1906.04150391 678.75927734 C-1906.07133362 677.98046204 -1906.10116333 677.20164673 -1906.13189697 676.39923096 C-1906.29843754 672.00170346 -1906.42977346 667.60598891 -1906.50283813 663.20587158 C-1906.54033395 661.25756899 -1906.60529835 659.30985532 -1906.67114258 657.36230469 C-1906.74281715 647.81577803 -1906.74281715 647.81577803 -1903.42041016 643.64208984 C-1893.37027378 634.10260105 -1877.06519887 631.02503771 -1864.04150391 627.75927734 C-1863.08920898 627.51854492 -1862.13691406 627.2778125 -1861.15576172 627.02978516 C-1777.38404091 606.26016619 -1688.13979712 601.8842217 -1504.04150391 589.75927734 C-1503.21833679 589.71409218 -1502.39516968 589.66890701 -1501.54705811 589.6223526 C-1398.12395446 583.95755287 -1294.5879479 581.0075159 -1191.04150391 578.75927734 C-1189.74848862 578.73101742 -1189.74848862 578.73101742 -1188.42935181 578.70218658 C-1170.48057226 578.31002809 -1152.53205192 578.01139512 -1134.58007812 577.81072998 C-1130.36675933 577.76343984 -1126.15348357 577.71284433 -1121.94020557 577.66206551 C-1005.88418998 576.26753814 -889.82086799 576.26947793 -437.02075195 588.89599609 C-435.90796371 588.95507141 -434.79517548 589.01414673 -433.64866638 589.07501221 C-431.64280891 589.18226143 -429.6370652 589.2916769 -427.63148499 589.4039917 C-422.09207742 589.70219938 -416.58912328 589.80575397 -411.04150391 589.75927734 C-410.82726776 589.2586528 -410.61303162 588.75802826 -410.39230347 588.24223328 C-399.58545661 562.99083179 -388.75379934 537.75044532 -377.86343384 512.53494263 C-371.08594757 496.84054114 -364.34104642 481.13246975 -357.61529541 465.41583252 C-348.77309063 444.75354865 -339.87446606 424.11697766 -330.91238403 403.50640869 C-323.6378955 386.77488423 -316.42479661 370.01814187 -309.25170898 353.24291992 C-301.85779321 335.95500749 -294.38744097 318.70109969 -286.89141846 301.45724487 C-279.61632072 284.71963028 -272.39216524 267.96115344 -265.21826172 251.17993164 C-261.87950032 243.37151047 -258.53268648 235.56700754 -255.14697266 227.77880859 C-254.84200867 227.07706009 -254.53704468 226.37531158 -254.22283936 225.65229797 C-252.82160341 222.42949809 -251.41760626 219.20796052 -250.00976562 215.98803711 C-248.67232698 212.91781492 -247.35314894 209.84058495 -246.04150391 206.75927734 C-245.69716309 205.98100586 -245.35282227 205.20273438 -244.99804688 204.40087891 C-243.18710409 200.07298072 -242.672542 197.26844571 -244.04150391 192.75927734 C-245.07040536 190.39446353 -246.13411879 188.11978271 -247.29150391 185.82177734 C-264.57764615 149.96887375 -266.77289553 106.83468672 -254.17333984 69.16357422 C-245.95391781 46.17011151 -233.9467221 26.40894552 -217.04150391 8.75927734 C-216.34927734 8.01548828 -215.65705078 7.27169922 -214.94384766 6.50537109 C-158.78753163 -52.09695507 -59.84301727 -52.56582005 0 0 Z M-97.04150391 -14.24072266 C-93.469188 -10.56917576 -89.72014907 -7.21613729 -85.79150391 -3.92822266 C-35.33498937 38.87718272 -4.06592291 95.14572 1.78808594 161.49609375 C2.14962376 166.29760605 2.38021937 171.11139968 2.52954102 175.92407227 C2.67821148 179.65787349 2.89392056 182.57916503 4.95849609 185.75927734 C23.25154083 158.43849625 29.25597293 125.88823789 23.06005859 93.54833984 C15.00101686 56.39661971 -7.49654189 23.36085212 -39.33837891 2.61083984 C-57.30178934 -8.19204062 -76.17759108 -13.4640173 -97.04150391 -14.24072266 Z " fill="#82B940" transform="translate(2214.04150390625,1086.24072265625)"/>
<path d="M0 0 C-0.33 0.66 -0.66 1.32 -1 2 C-3.02366638 2.35198975 -3.02366638 2.35198975 -5.73608398 2.49902344 C-6.7577919 2.55984604 -7.77949982 2.62066864 -8.83216858 2.68333435 C-9.95876389 2.74142776 -11.08535919 2.79952118 -12.24609375 2.859375 C-14.67239863 3.00306639 -17.09866664 3.14738154 -19.52490234 3.29223633 C-21.45810333 3.40313095 -21.45810333 3.40313095 -23.43035889 3.51626587 C-80.09199212 6.78847578 -138.60721262 12.57485636 -193.625 27.0625 C-194.3503595 27.25119659 -195.07571899 27.43989319 -195.82305908 27.63430786 C-271.9118581 47.46987771 -345.87242322 77.57740591 -434 129 C-435.07169434 129.64404785 -436.14338867 130.2880957 -437.24755859 130.95166016 C-454.58984767 141.37379703 -471.3748116 152.48104344 -488 164 C-488.84949219 164.58797363 -489.69898438 165.17594727 -490.57421875 165.78173828 C-513.16514067 181.46401876 -534.98978192 198.14138768 -556.25585938 215.57177734 C-557.82908924 216.86004648 -559.40648248 218.14322725 -560.984375 219.42578125 C-567.49423917 224.72210137 -573.91567012 230.11713119 -580.30419922 235.55859375 C-582.00234846 237.00199616 -583.70590193 238.43881423 -585.41015625 239.875 C-592.38611359 245.77689859 -599.14971947 251.86041941 -605.80053711 258.12670898 C-608.96307384 261.10578939 -612.14107869 264.0430451 -615.4375 266.875 C-618.71593486 269.69317943 -621.74772482 272.7030007 -624.75 275.8125 C-626.65150513 277.66118554 -628.58986574 279.38057055 -630.60131836 281.10571289 C-635.12891311 285.0573181 -639.38659788 289.24227534 -643.62890625 293.49609375 C-644.42223862 294.28846939 -645.21557098 295.08084503 -646.03294373 295.89723206 C-647.69889081 297.56250283 -649.36359256 299.22902029 -651.02709961 300.89672852 C-653.55536134 303.43034622 -656.08891661 305.95858167 -658.62304688 308.48632812 C-660.2503207 310.11426283 -661.87728425 311.74250775 -663.50390625 313.37109375 C-664.62606285 314.490214 -664.62606285 314.490214 -665.77088928 315.63194275 C-669.85967892 319.73877298 -673.78067216 323.93428423 -677.55381775 328.33363342 C-679.27911946 330.32161599 -681.10678996 332.17207306 -683 334 C-686.14920881 337.10713922 -689.07976967 340.32490304 -691.9609375 343.6796875 C-694.03556749 346.04047336 -696.16495872 348.3395235 -698.30981445 350.63623047 C-703.33562806 356.01873495 -708.11067346 361.50769262 -712.72265625 367.25390625 C-715.21828563 370.26321578 -717.83804891 373.13899881 -720.5 376 C-724.67755699 380.50056398 -728.6471322 385.12065961 -732.5 389.90234375 C-734.980551 392.97590147 -737.4905011 396.02302343 -740.00756836 399.06665039 C-750.05963898 411.22621587 -759.94651431 423.50253918 -769.51123047 436.05029297 C-771.24395535 438.31948629 -772.98345983 440.5834194 -774.72265625 442.84765625 C-783.34620884 454.09458871 -791.78716498 465.44988599 -800 477 C-800.51014648 477.71639648 -801.02029297 478.43279297 -801.54589844 479.17089844 C-836.58357654 528.42805276 -869.04750336 579.47275808 -897.35644531 632.90527344 C-898.92142741 635.85205197 -900.5021365 638.7898679 -902.0859375 641.7265625 C-907.74060556 652.28980298 -912.96050726 663.01322166 -917.875 673.9375 C-918.39843994 675.09741455 -918.92187988 676.2573291 -919.46118164 677.45239258 C-926.82247916 694.04025659 -932.3776033 711.04044155 -937.6875 728.375 C-938.21115646 730.08074692 -938.21115646 730.08074692 -938.74539185 731.82095337 C-962.02812324 807.86010033 -976.94701974 885.59743316 -982 965 C-982.04805786 965.72027374 -982.09611572 966.44054749 -982.14562988 967.18264771 C-983.24618014 984.04139379 -983.24547572 1000.92518739 -983.25 1017.8125 C-983.25044186 1018.5704826 -983.25088371 1019.32846519 -983.25133896 1020.10941696 C-983.25957978 1047.16626767 -982.52119312 1074.04468413 -980 1101 C-979.91514343 1101.91150818 -979.83028687 1102.82301636 -979.74285889 1103.762146 C-971.79326034 1188.0182927 -952.731716 1271.52952973 -853.65820312 1496.125 C-851.90150882 1499.17076445 -850.16089228 1502.22536142 -848.421875 1505.28125 C-839.60770842 1520.72519265 -830.4376097 1535.92957932 -821 1551 C-820.35535797 1552.03181396 -820.35535797 1552.03181396 -819.69769287 1553.08447266 C-812.52076449 1564.56154781 -805.16744557 1575.9082536 -797.64550781 1587.16210938 C-795.99718245 1589.62921713 -794.35385036 1592.09959804 -792.7109375 1594.5703125 C-785.64611033 1605.17215293 -778.400395 1615.6300081 -771 1626 C-770.37287109 1626.88316895 -769.74574219 1627.76633789 -769.09960938 1628.67626953 C-760.90380947 1640.19935801 -752.39083876 1651.47045235 -743.77734375 1662.68359375 C-742.25269352 1664.67066537 -740.73377738 1666.66184082 -739.21875 1668.65625 C-730.43657644 1680.17572441 -721.2805469 1691.39356778 -711.88305664 1702.41577148 C-709.03628294 1705.75772672 -706.25426368 1709.14408763 -703.5 1712.5625 C-699.37309794 1717.63607493 -694.99897442 1722.43741142 -690.5546875 1727.23046875 C-688.49886278 1729.45918393 -686.48383043 1731.70767919 -684.5 1734 C-680.28577212 1738.85033775 -675.93863019 1743.57769921 -671.57617188 1748.29443359 C-670.51844714 1749.43899137 -669.46247782 1750.58517369 -668.40820312 1751.73291016 C-660.15790829 1760.70669993 -651.67086203 1769.43332738 -643.0625 1778.0625 C-642.57213257 1778.55545563 -642.08176514 1779.04841125 -641.57653809 1779.55630493 C-636.43553287 1784.71874716 -631.26388212 1789.79731122 -625.70288086 1794.51147461 C-623.88456693 1796.10090257 -622.19065798 1797.77609804 -620.5 1799.5 C-616.83705246 1803.21200487 -612.95273697 1806.60126869 -609 1810 C-607.87058085 1810.98118075 -606.7417224 1811.96300712 -605.61328125 1812.9453125 C-545.16323917 1865.53945983 -473.78385454 1918.93934162 -395 1939 C-390.62899254 1933.71162061 -386.29658958 1928.40389311 -382.09375 1922.98120117 C-368.31204054 1905.2257321 -352.97669087 1888.9097658 -337.125 1873 C-336.24521484 1872.11554199 -335.36542969 1871.23108398 -334.45898438 1870.31982422 C-329.46559287 1865.33873637 -324.3517524 1860.59111262 -319 1856 C-317.39231627 1854.54554483 -315.78760285 1853.08779105 -314.1875 1851.625 C-308.93673993 1846.89530772 -303.53040201 1842.39831419 -298 1838 C-297.09894531 1837.26910156 -296.19789063 1836.53820313 -295.26953125 1835.78515625 C-287.4170658 1829.62232474 -279.03454266 1824.88215166 -270.2421875 1820.20117188 C-268.20120681 1819.10778936 -266.17693005 1817.9896929 -264.15625 1816.859375 C-197.51276899 1779.99240364 -118.98157093 1756.29283926 -17 1741 C-16.17298584 1740.9071875 -15.34597168 1740.814375 -14.49389648 1740.71875 C31.51660519 1736.04720963 80.13351791 1739.70887815 122 1760.375 C161.69902183 1779.84134789 207.46090038 1785.19522657 251 1789 C251.68402893 1789.06165344 252.36805786 1789.12330688 253.07281494 1789.18682861 C315.49354438 1794.78594042 379.30913177 1791.13502536 441.59765625 1785.90234375 C442.95566597 1785.7883448 442.95566597 1785.7883448 444.34111023 1785.67204285 C449.47044427 1785.23468839 454.59181278 1784.74796288 459.71128845 1784.2068634 C471.23986518 1783.16486201 484.79234117 1782.06543266 494.5 1789.375 C498.19861446 1793.25854518 499.10253822 1796.18117672 499.4375 1801.4375 C498.84859453 1822.39013686 481.1194233 1840.66714076 467.70703125 1855.0703125 C465.33837376 1857.63379463 463.04129396 1860.24281673 460.75 1862.875 C454.60785937 1869.70813145 447.80757019 1875.8434026 441 1882 C440.45327637 1882.50208984 439.90655273 1883.00417969 439.34326172 1883.52148438 C430.3786056 1891.71742193 420.60936625 1898.11166652 410 1904 C409.31357422 1904.38365723 408.62714844 1904.76731445 407.91992188 1905.16259766 C383.92053526 1918.25369714 355.63687939 1925.71238697 329 1931 C327.98405762 1931.21172852 326.96811523 1931.42345703 325.92138672 1931.64160156 C298.24313331 1937.39867827 270.03751878 1940.53287496 241.875 1942.75 C241.12850189 1942.80907532 240.38200378 1942.86815063 239.61288452 1942.92901611 C234.41135063 1943.3335021 229.20776692 1943.6860878 224 1944 C223.23069153 1944.04639618 222.46138306 1944.09279236 221.66876221 1944.14059448 C203.80893476 1945.17232482 185.92382415 1945.31146162 168.04003906 1945.53222656 C163.962856 1945.58333561 159.88572838 1945.63854476 155.80859375 1945.69335938 C147.87244331 1945.79947661 139.93624512 1945.90121798 132 1946 C164.52538922 1958.55422474 197.96816454 1960.23381173 232.5625 1960.25 C234.51342056 1960.25101212 234.51342056 1960.25101212 236.50375366 1960.25204468 C261.09484499 1960.23193503 285.5074683 1959.22932922 310 1957 C311.40230865 1956.87271515 311.40230865 1956.87271515 312.83294678 1956.74285889 C382.30529436 1950.3571022 452.07430752 1940.09611147 516 1911 C517.11938965 1910.4937207 518.2387793 1909.98744141 519.39208984 1909.46582031 C546.64250758 1897.09933012 573.25302766 1883.5449546 599.18701172 1868.60791016 C603.22898596 1866.29750898 607.29924661 1864.03892532 611.3684082 1861.77685547 C641.81714189 1844.83839458 671.53493283 1826.58839324 701 1808 C701.90878906 1807.42717285 702.81757812 1806.8543457 703.75390625 1806.26416016 C726.49241982 1791.91354071 749.06947737 1777.26478307 771.23364258 1762.03979492 C774.47042164 1759.81798335 777.71242071 1757.60391119 780.95703125 1755.39355469 C782.58922682 1754.28019757 784.21720733 1753.16066198 785.84375 1752.0390625 C819.30509796 1729.76771077 871.67431262 1703.9005485 913.1171875 1710.49609375 C919.64489599 1712.25202749 923.92094031 1714.98894803 927.8125 1720.625 C933.42199546 1736.56777658 926.68493525 1753.07819403 919.79296875 1767.53125 C906.41590664 1794.9956607 888.44148091 1819.75417706 870 1844 C869.57509277 1844.56138672 869.15018555 1845.12277344 868.71240234 1845.70117188 C862.16312467 1854.35047557 855.36442945 1862.78159325 848.49267578 1871.17529297 C847.17813798 1872.78223696 845.86801698 1874.39279191 844.55859375 1876.00390625 C840.13161017 1881.44458196 835.63204015 1886.81789022 831.08764648 1892.16040039 C828.15691459 1895.61178688 825.28270769 1899.1023619 822.4375 1902.625 C818.56187067 1907.38807218 814.48765711 1911.93364249 810.33203125 1916.453125 C808.37594748 1918.58941749 806.45812303 1920.74780657 804.5625 1922.9375 C800.81103068 1927.24993669 796.94778687 1931.45772 793.07348633 1935.65942383 C791.15651339 1937.74007457 789.24749479 1939.82705724 787.34350586 1941.91967773 C780.00987071 1949.96304635 772.42541761 1957.72998148 764.71679688 1965.41357422 C762.73449756 1967.3904601 760.75767367 1969.37271039 758.78125 1971.35546875 C747.66019019 1982.48236419 747.66019019 1982.48236419 741.71826172 1987.52685547 C738.60434899 1990.19655558 735.66374038 1993.05400729 732.6875 1995.875 C727.4605134 2000.79493773 722.14137138 2005.45374682 716.53125 2009.93359375 C713.99861847 2012.00112782 711.5926884 2014.16113341 709.1875 2016.375 C704.21929677 2020.89653512 698.99196423 2025.01152206 693.6875 2029.125 C690.63916733 2031.49019681 687.63430048 2033.90421313 684.63793945 2036.3347168 C643.94484201 2069.27778472 599.1623767 2097.43702784 553 2122 C551.96536621 2122.55155762 550.93073242 2123.10311523 549.86474609 2123.67138672 C469.38342309 2166.41390208 381.05285624 2196.62665423 -235.35229492 2169.54931641 C-240.24007351 2168.04948258 -245.12067849 2166.52708286 -250 2165 C-251.18465851 2164.63068359 -251.18465851 2164.63068359 -252.39324951 2164.25390625 C-274.546976 2157.34453914 -296.37598219 2149.74743254 -318.0637207 2141.49291992 C-320.68606417 2140.49564725 -323.31204489 2139.50911857 -325.94213867 2138.5324707 C-335.92215019 2134.82516283 -345.82168362 2130.93858491 -355.6875 2126.9375 C-356.4878064 2126.61296844 -357.28811279 2126.28843689 -358.1126709 2125.95407104 C-379.98218685 2117.06636941 -401.40098964 2107.3511121 -422.60058594 2096.9715271 C-432.24071608 2092.25216094 -441.93413967 2087.71825971 -451.75 2083.375 C-466.33563475 2076.9152339 -480.68175354 2070.02705875 -495 2063 C-496.06621582 2062.48050781 -497.13243164 2061.96101563 -498.23095703 2061.42578125 C-511.23736464 2055.08457171 -523.93610317 2048.35362978 -536.484375 2041.1484375 C-540.80750284 2038.66708883 -545.16531271 2036.26139357 -549.54931641 2033.88964844 C-561.62771239 2027.34868803 -573.33939237 2020.25531104 -585 2013 C-585.87817383 2012.45537109 -586.75634766 2011.91074219 -587.66113281 2011.34960938 C-610.27379869 1997.28366377 -632.47190383 1982.36562412 -653.89892578 1966.54785156 C-656.1850147 1964.86370054 -658.48068847 1963.19314683 -660.77734375 1961.5234375 C-670.12037358 1954.71195349 -679.25260246 1947.70234385 -688.23242188 1940.42041016 C-690.57127184 1938.540931 -692.94009967 1936.70155561 -695.31005859 1934.86157227 C-701.33593561 1930.17972271 -707.18956694 1925.33891909 -712.95678711 1920.34204102 C-716.46203211 1917.30646431 -720.01210208 1914.34544223 -723.625 1911.4375 C-728.68096363 1907.33464881 -733.45857828 1902.97929125 -738.23046875 1898.5546875 C-740.45918393 1896.49886278 -742.70767919 1894.48383043 -745 1892.5 C-750.43409304 1887.7771175 -755.71937265 1882.8927764 -761 1878 C-761.61488281 1877.43168457 -762.22976563 1876.86336914 -762.86328125 1876.27783203 C-771.78288389 1868.01736836 -780.51610696 1859.5840053 -789.125 1851 C-790.00148193 1850.12811035 -790.87796387 1849.2562207 -791.78100586 1848.35791016 C-796.20084817 1843.92744425 -800.46029081 1839.42636617 -804.53857422 1834.6796875 C-806.27064219 1832.68893781 -808.10206135 1830.83249249 -810 1829 C-813.19261312 1825.8501997 -816.17161279 1822.58780511 -819.09375 1819.1875 C-821.30945648 1816.64488601 -823.59098592 1814.16889802 -825.875 1811.6875 C-830.01803222 1807.14959482 -833.92380414 1802.46855965 -837.78125 1797.6875 C-839.97275268 1795.0330038 -842.24247683 1792.47999115 -844.5625 1789.9375 C-848.11321008 1786.03233004 -851.45393696 1782.02079434 -854.71875 1777.875 C-856.45115832 1775.69169089 -858.19966932 1773.52827497 -859.96875 1771.375 C-867.00704199 1762.80340385 -873.78243585 1754.08405869 -880.3828125 1745.171875 C-882.1077492 1742.85529334 -883.84894851 1740.55165303 -885.59375 1738.25 C-910.79777121 1704.96637788 -933.79811288 1669.95630465 -955 1634 C-955.84836426 1632.56454834 -955.84836426 1632.56454834 -956.71386719 1631.10009766 C-967.36603718 1613.02182672 -977.34359469 1594.62475501 -987 1576 C-987.32591125 1575.37222656 -987.65182251 1574.74445313 -987.98760986 1574.09765625 C-998.50654343 1553.80815073 -1007.99962078 1533.11620336 -1017.07226562 1512.14324951 C-1017.95964728 1510.09322276 -1018.85053537 1508.04475421 -1019.7421875 1505.99658203 C-1053.42709369 1428.46171589 -1076.40313036 1346.4175382 -1029.734375 679.34375 C-1024.49426979 666.07957858 -1018.85868647 653.00197719 -1013 640 C-1012.50435547 638.89978516 -1012.00871094 637.79957031 -1011.49804688 636.66601562 C-1008.06441717 629.07945828 -1004.55154102 621.53198522 -1001 614 C-1000.46826172 612.86804199 -999.93652344 611.73608398 -999.38867188 610.56982422 C-986.74612137 583.73612273 -973.00068254 557.52830129 -957.80957031 532.04394531 C-955.84699042 528.74261692 -953.90282488 525.43070345 -951.9609375 522.1171875 C-944.99637548 510.24966824 -937.95070243 498.45837168 -930.32861328 486.99804688 C-928.92945917 484.89391655 -927.54064406 482.78317996 -926.15234375 480.671875 C-907.02324631 451.67665828 -886.49448706 423.60300885 -864.44433594 396.76025391 C-863.14855163 395.18104416 -861.85902202 393.59670714 -860.5703125 392.01171875 C-855.27488748 385.50079581 -849.87878999 379.07998353 -844.43701172 372.69140625 C-843.00600998 371.00707393 -841.58262965 369.3165372 -840.16015625 367.625 C-833.05686511 359.21415577 -825.61536898 351.16910043 -818.03979492 343.18334961 C-816.61585916 341.65920149 -815.20835969 340.11960404 -813.8137207 338.56860352 C-805.23504562 329.04282788 -796.16581626 320.01455564 -787.0925293 310.9621582 C-784.30466626 308.1796814 -781.52222258 305.3918649 -778.74023438 302.60351562 C-776.94823741 300.81217908 -775.15593047 299.02115256 -773.36328125 297.23046875 C-772.54225418 296.40741745 -771.72122711 295.58436615 -770.87532043 294.7363739 C-766.62760215 290.5057179 -762.31263276 286.42032859 -757.75842285 282.52030945 C-754.81818446 279.9782177 -752.01423987 277.29170491 -749.1875 274.625 C-744.14434182 269.90126891 -738.97309024 265.43165709 -733.578125 261.109375 C-730.9757371 258.98014854 -728.48424498 256.76550643 -726 254.5 C-720.8249007 249.79536428 -715.43858803 245.39481861 -710 241 C-708.78057483 240.00082343 -707.56186423 239.00077435 -706.34375 238 C-693.67205652 227.60835633 -680.67574333 217.68009848 -667.5 207.9375 C-666.80221436 207.4206665 -666.10442871 206.90383301 -665.38549805 206.37133789 C-651.21124796 195.94388112 -636.70797588 186.00064732 -622.0625 176.25 C-621.21416595 175.6848468 -620.36583191 175.1196936 -619.49179077 174.53741455 C-543.57034718 124.02031382 -462.00624455 85.02381503 -128.44464111 3.17578125 C-126.73918748 3.05315107 -125.03391764 2.92794944 -123.32879639 2.80078125 C-82.20599206 -0.26513207 -41.20645474 -0.35098788 0 0 Z " fill="#107A3D" transform="translate(1125,634)"/>
<path d="M0 0 C7.06117015 2.79162541 10.83550256 14.89462412 14.1875 21.25 C28.71963823 48.44799158 45.77707497 72.8774355 66.51953125 95.67578125 C67.96535276 97.26748746 69.40030751 98.86913226 70.82421875 100.48046875 C75.45931041 105.7147105 80.25770487 110.72305567 85.26293945 115.60107422 C87.97963367 118.26914855 90.53932679 121.01142134 93.0234375 123.8984375 C96.86685525 128.34044622 100.9985901 132.44852587 105.1875 136.5625 C109.96217219 141.25175766 114.5715859 145.98786532 118.93652344 151.06201172 C122.03526284 154.60231716 125.31377624 157.97293491 128.5625 161.375 C133.85650915 166.95527016 138.91643292 172.58751153 143.69921875 178.61328125 C145.69133483 181.06722385 147.78579748 183.37296594 149.9375 185.6875 C200.07602508 240.90112884 221.86720677 316.82666943 218.4140625 390.3984375 C215.66291115 439.96898858 201.99773529 485.9714747 179.6875 530.0625 C178.88184562 531.6713912 178.07699601 533.280686 177.2734375 534.890625 C176.75007813 535.93734375 176.22671875 536.9840625 175.6875 538.0625 C178.04398224 535.56467427 180.39724016 533.06383185 182.75 530.5625 C183.40677734 529.86640625 184.06355469 529.1703125 184.74023438 528.453125 C188.63636771 524.30748559 192.43181746 520.09431716 196.16235352 515.79931641 C200.89906273 510.40521534 206.14626806 505.55413914 211.58984375 500.88671875 C213.02021184 499.6428046 214.42850725 498.37315931 215.81640625 497.08203125 C223.64888166 489.80617846 232.1122056 483.425672 240.6875 477.0625 C241.36167969 476.5581543 242.03585937 476.05380859 242.73046875 475.53417969 C317.21840641 420.10725161 415.40664531 400.03250376 506.63671875 412.80078125 C554.3838936 419.85840521 597.34391893 436.49671416 640.48730469 457.51318359 C643.45483416 458.94985906 646.4310186 460.36540926 649.4140625 461.76953125 C670.86888817 471.87248717 692.05767244 482.52839158 712.5 494.5625 C714.12566895 495.51322388 714.12566895 495.51322388 715.78417969 496.4831543 C722.82022097 500.69207664 729.85762956 505.23262956 735.6875 511.0625 C736.0625 513.875 736.0625 513.875 735.6875 517.0625 C732.00711017 520.58234032 727.74186821 522.68357349 723.17578125 524.8203125 C721.68935584 525.53032152 720.20294694 526.24036512 718.71655273 526.95043945 C717.94560272 527.31577789 717.17465271 527.68111633 716.38034058 528.05752563 C680.80660134 544.94477858 650.3168206 565.80788068 620.49902344 591.50537109 C618.69387604 593.05701936 616.88311441 594.60183585 615.0703125 596.14453125 C609.63939379 600.77065023 604.25371685 605.42165511 599 610.25 C594.6900601 614.20234664 590.24217247 617.91945336 585.69140625 621.58984375 C582.19082522 624.47133633 578.78492675 627.44994562 575.375 630.4375 C568.94696163 636.04733593 562.34913018 641.37426868 555.59326172 646.58203125 C553.52992337 648.18491156 551.48503699 649.80957746 549.44140625 651.4375 C507.22150672 684.93867576 460.87095961 704.84950354 407.6875 713.0625 C406.84670898 713.19672363 406.00591797 713.33094727 405.13964844 713.46923828 C379.98163201 717.31267397 351.82309542 716.75950204 326.6875 713.0625 C325.77291016 712.93359375 324.85832031 712.8046875 323.91601562 712.671875 C263.69689661 704.00609905 201.71737734 680.12988541 156.6875 638.0625 C157.00460937 638.53816406 157.32171875 639.01382813 157.6484375 639.50390625 C158.67628275 641.04567413 159.70204959 642.58882825 160.7265625 644.1328125 C162.12467518 646.22162627 163.53484852 648.29775011 164.9609375 650.3671875 C193.43215299 691.93413366 210.06556181 739.49208448 217.6875 789.0625 C217.81495605 789.88057129 217.94241211 790.69864258 218.07373047 791.54150391 C229.14823337 865.57447355 210.5421743 943.9753627 166.25 1004.1875 C162.13595767 1009.5930759 157.782117 1014.76930759 153.359375 1019.921875 C150.98791464 1022.69026064 148.70852517 1025.523412 146.4375 1028.375 C141.35886577 1034.62281621 135.81124561 1040.41268181 130.27734375 1046.25390625 C127.38254118 1049.31183884 124.54800403 1052.41535162 121.75 1055.5625 C118.55954818 1059.1420313 115.25591359 1062.55429667 111.8046875 1065.8828125 C109.97648118 1067.76498801 108.27723127 1069.68911459 106.5703125 1071.6796875 C101.38849993 1077.64449276 95.69568404 1083.09921423 90.0703125 1088.640625 C85.59935801 1093.07081091 81.26760242 1097.53791029 77.19677734 1102.34057617 C75.64487952 1104.11112541 74.010472 1105.74500892 72.3125 1107.375 C68.52035194 1111.09927964 65.2505045 1115.19149355 61.92578125 1119.33203125 C59.99923329 1121.68221802 58.00951086 1123.90467679 55.9375 1126.125 C36.12014499 1148.22745758 21.54557295 1175.60913445 8.01953125 1201.8046875 C6.04141046 1205.15763124 4.73138182 1206.77780496 0.9375 1207.8125 C-4.51238449 1206.55483435 -6.41496278 1202.62901865 -9.3125 1198.0625 C-57.84328927 1119.41540786 -92.49943919 1021.29760746 -80.1875 849.5625 C-68.45991059 802.19178878 -48.14544889 757.19335936 -17.72998047 718.85009766 C-16.49870809 717.29732873 -15.28129447 715.73358992 -14.06640625 714.16796875 C-9.83625839 708.76325268 -5.31568094 703.67792132 -0.6640625 698.6328125 C1.23245739 696.55987215 3.06336572 694.45858984 4.875 692.3125 C8.44893062 688.20247978 12.28318053 684.35735053 16.125 680.5 C16.74592529 679.87448242 17.36685059 679.24896484 18.0065918 678.60449219 C22.40284761 674.22262768 26.96568481 670.09011684 31.6875 666.0625 C32.32582764 665.51746826 32.96415527 664.97243652 33.62182617 664.41088867 C52.99056539 648.00238369 73.59878055 633.7145968 95.75 621.3125 C96.51828125 620.88171143 97.2865625 620.45092285 98.078125 620.00708008 C103.43434604 617.0625 103.43434604 617.0625 105.6875 617.0625 C108.86423643 628.74152942 111.07300708 640.39243517 112.75 652.375 C112.8772345 653.27977081 113.00446899 654.18454163 113.13555908 655.11672974 C123.52388189 729.93783283 119.03376408 805.39436895 109.6875 880.0625 C109.50735855 881.52132095 109.50735855 881.52132095 109.32357788 883.00961304 C107.56183107 897.23743805 105.41049456 911.36852258 103 925.5 C102.67604186 927.41855391 102.35247312 929.3371736 102.02929688 931.25585938 C101.25314741 935.8588375 100.47186474 940.46091499 99.6875 945.0625 C127.64067662 846.99054044 145.89555229 747.84801317 142.6875 623.0625 C143.3386377 623.53413574 143.98977539 624.00577148 144.66064453 624.49169922 C148.42810622 626.44684106 151.95881226 626.82636867 156.1171875 627.1953125 C156.93497681 627.27729889 157.75276611 627.35928528 158.59533691 627.4437561 C161.24994328 627.70540759 163.9058356 627.94771229 166.5625 628.1875 C168.40837943 628.3608584 170.25424526 628.53436171 172.10009766 628.70800781 C184.96016327 629.89778259 197.76868296 630.90253173 210.6875 631.0625 C211.3834729 631.07238953 212.0794458 631.08227905 212.79650879 631.09246826 C299.26947301 632.29813848 384.72030578 620.29292267 468.6875 600.0625 C468.09616272 600.13100662 467.50482544 600.19951324 466.89556885 600.27009583 C441.19657751 603.23886542 415.5068422 606.17819254 389.6875 607.875 C388.83079712 607.93184967 387.97409424 607.98869934 387.09143066 608.04727173 C381.29211545 608.426119 375.49103859 608.75580695 369.6875 609.0625 C368.82464386 609.10982269 367.96178772 609.15714539 367.07278442 609.2059021 C350.25879107 610.110793 333.46088013 610.26828256 316.625 610.25 C315.94573959 610.24943855 315.26647919 610.24887711 314.56663513 610.24829865 C257.95931568 610.18997225 195.70637267 608.91614575 141.6875 590.0625 C141.3575 589.4025 141.0275 588.7425 140.6875 588.0625 C141.0175 587.0725 141.3475 586.0825 141.6875 585.0625 C141.3575 585.0625 141.0275 585.0625 140.6875 585.0625 C140.71779297 584.18029785 140.74808594 583.2980957 140.77929688 582.38916016 C141.33664884 565.76077865 141.79093148 549.13864292 141.8125 532.5 C141.81701172 531.23430176 141.82152344 529.96860352 141.82617188 528.66455078 C141.79431692 507.70133884 140.70254563 486.80055484 138.6875 465.9375 C138.58312622 464.84753723 138.47875244 463.75757446 138.37121582 462.63458252 C134.49373551 422.85289224 127.58465417 383.5017225 118.70019531 344.54833984 C117.76664401 340.44261933 116.88824116 336.32778371 116.0234375 332.20703125 C111.05583625 308.85182267 104.33701055 285.98403636 97.6875 263.0625 C97.99602905 264.73469604 97.99602905 264.73469604 98.31079102 266.44067383 C115.67552232 361.30312317 124.58304579 460.31212297 110.75 556.25 C110.56833282 557.51272736 110.56833282 557.51272736 110.38299561 558.80096436 C108.77951679 569.74198342 106.57306277 580.38784574 103.6875 591.0625 C72.7169791 579.02877351 44.95758015 555.24601217 20.6875 533.0625 C19.64739742 532.12731269 18.60701806 531.19243314 17.56640625 530.2578125 C10.15766852 523.56388545 3.27908662 516.56455243 -3.3125 509.0625 C-3.79041992 508.52399414 -4.26833984 507.98548828 -4.76074219 507.43066406 C-35.45276772 472.77315599 -58.9058826 432.05118414 -73.3125 388.0625 C-73.62912598 387.10956055 -73.94575195 386.15662109 -74.27197266 385.17480469 C-107.3735648 284.67733381 -90.63617666 183.99766031 -20.67749023 26.43676758 C-7.16576764 0.1936694 -7.16576764 0.1936694 0 0 Z M95.6875 256.0625 C96.6875 258.0625 96.6875 258.0625 96.6875 258.0625 Z M144.6875 580.0625 C145.6875 582.0625 145.6875 582.0625 145.6875 582.0625 Z M97.6875 949.0625 C98.6875 952.0625 98.6875 952.0625 98.6875 952.0625 Z " fill="#107A3D" transform="translate(1017.3125,30.9375)"/>
<path d="M0 0 C14.97200697 13.44905039 26.48315019 28.0244485 35.95849609 45.75927734 C36.47927734 46.68482422 37.00005859 47.61037109 37.53662109 48.56396484 C56.44601036 83.69561964 58.65133247 127.42454615 47.42602539 165.20532227 C39.76197223 189.74558804 27.61519256 210.09192822 9.95849609 228.75927734 C8.74806641 230.06638672 8.74806641 230.06638672 7.51318359 231.39990234 C-4.56160481 244.01535292 -21.69057939 258.63905805 -39.04150391 262.75927734 C-39.19386552 263.66880661 -39.19386552 263.66880661 -39.34930515 264.59671021 C-40.83266342 273.11639083 -42.76721471 281.52044775 -44.73071289 289.93896484 C-45.1043436 291.54968574 -45.47773967 293.16046108 -45.85092163 294.77128601 C-46.65417633 298.23623635 -47.45907164 301.70079992 -48.26525688 305.16506958 C-49.56290886 310.741342 -50.85674733 316.31849536 -52.15016174 321.89575195 C-54.22209658 330.82804109 -56.29648216 339.75975897 -58.37193304 348.69123173 C-62.45536854 366.26392004 -66.53502983 383.83748461 -70.61238837 401.4115839 C-71.06326141 403.35487435 -71.51416907 405.29815677 -71.96511102 407.24143124 C-80.70207242 444.89265203 -89.34417458 482.56517754 -97.95272636 520.24593735 C-102.35798912 539.52718775 -106.78453296 558.80352721 -111.22729492 578.07617188 C-112.09010952 581.81964655 -112.95126126 585.56349906 -113.8112793 589.30761719 C-114.90721837 594.07876162 -116.00569972 598.84931402 -117.10600471 603.61945343 C-117.50828393 605.36523836 -117.90973237 607.111215 -118.31020927 608.85741425 C-120.43719552 618.12860966 -122.66916386 627.34905679 -125.18702698 636.52252197 C-126.51682671 641.55979833 -127.53382536 646.64967362 -128.54150391 651.75927734 C-130.38762588 660.86829066 -132.48074746 669.82458563 -135.04150391 678.75927734 C-135.70827238 681.09258159 -136.37495107 683.42591149 -137.04150391 685.75927734 C-219.64750008 696.40093841 -302.92827367 704.02605539 -386.15559387 707.48233032 C-392.90095229 707.77410946 -399.62466302 708.28253296 -406.35400391 708.82177734 C-424.86493407 710.2980049 -443.46942567 711.04354385 -462.04150391 710.75927734 C-460.04423901 701.85657532 -455.95983881 693.44939203 -452.05078125 685.25756836 C-445.60482589 671.6072097 -439.9796939 657.55119945 -434.29150391 643.57177734 C-432.20087131 638.43770989 -429.98075811 633.39220075 -427.60400391 628.38427734 C-423.91051897 620.59726519 -420.58158436 612.67540488 -417.27246094 604.71875 C-409.31201198 585.58020136 -401.23306228 566.50044256 -392.96548462 547.49223328 C-388.53380893 537.29802829 -384.13245798 527.09069568 -379.72900391 516.88427734 C-379.26300781 515.80438538 -378.79701172 514.72449341 -378.31689453 513.61187744 C-370.37637436 495.20767163 -362.48080905 476.7844162 -354.59442139 458.35696411 C-346.75705889 440.04864621 -338.85383909 421.7697884 -330.91238403 403.50640869 C-323.6378955 386.77488423 -316.42479661 370.01814187 -309.25170898 353.24291992 C-301.85779321 335.95500749 -294.38744097 318.70109969 -286.89141846 301.45724487 C-279.61632072 284.71963028 -272.39216524 267.96115344 -265.21826172 251.17993164 C-261.87950032 243.37151047 -258.53268648 235.56700754 -255.14697266 227.77880859 C-254.84200867 227.07706009 -254.53704468 226.37531158 -254.22283936 225.65229797 C-252.82160341 222.42949809 -251.41760626 219.20796052 -250.00976562 215.98803711 C-248.67232698 212.91781492 -247.35314894 209.84058495 -246.04150391 206.75927734 C-245.69716309 205.98100586 -245.35282227 205.20273438 -244.99804688 204.40087891 C-243.18710409 200.07298072 -242.672542 197.26844571 -244.04150391 192.75927734 C-245.07040536 190.39446353 -246.13411879 188.11978271 -247.29150391 185.82177734 C-264.57764615 149.96887375 -266.77289553 106.83468672 -254.17333984 69.16357422 C-245.95391781 46.17011151 -233.9467221 26.40894552 -217.04150391 8.75927734 C-216.34927734 8.01548828 -215.65705078 7.27169922 -214.94384766 6.50537109 C-158.78753163 -52.09695507 -59.84301727 -52.56582005 0 0 Z M-97.04150391 -14.24072266 C-93.469188 -10.56917576 -89.72014907 -7.21613729 -85.79150391 -3.92822266 C-35.33498937 38.87718272 -4.06592291 95.14572 1.78808594 161.49609375 C2.14962376 166.29760605 2.38021937 171.11139968 2.52954102 175.92407227 C2.67821148 179.65787349 2.89392056 182.57916503 4.95849609 185.75927734 C23.25154083 158.43849625 29.25597293 125.88823789 23.06005859 93.54833984 C15.00101686 56.39661971 -7.49654189 23.36085212 -39.33837891 2.61083984 C-57.30178934 -8.19204062 -76.17759108 -13.4640173 -97.04150391 -14.24072266 Z " fill="#107A3D" transform="translate(2214.04150390625,1086.24072265625)"/>
<path d="M0 0 C1.22715729 0.0606665 2.45431458 0.12133301 3.71865845 0.18383789 C7.07827985 0.35171072 10.43762047 0.52417276 13.796875 0.69921875 C14.74171249 0.74696945 15.68654999 0.79472015 16.66001892 0.84391785 C22.22132362 1.14282638 27.72002027 1.64880416 33.25 2.3125 C29.84812571 12.25415125 25.97689004 21.88486535 21.75 31.5 C21.18839881 32.78823573 20.62720002 34.07664695 20.06640625 35.36523438 C17.71375034 40.76025745 15.33797337 46.14246215 12.875 51.48828125 C8.97932512 60.01361013 5.39775563 68.67911195 1.75 77.3125 C-6.88098598 97.74003376 -6.88098598 97.74003376 -10.72607422 106.08056641 C-12.23166018 109.36241354 -13.64811639 112.67784314 -15.0625 116 C-15.83013672 117.80017578 -15.83013672 117.80017578 -16.61328125 119.63671875 C-16.98839844 120.51972656 -17.36351562 121.40273437 -17.75 122.3125 C-16.1 122.3125 -14.45 122.3125 -12.75 122.3125 C-12.75 122.6425 -12.75 122.9725 -12.75 123.3125 C-13.42270432 123.33533554 -14.09540863 123.35817108 -14.78849792 123.38169861 C-21.84633901 123.62183055 -28.90403802 123.865859 -35.96166992 124.11206055 C-38.58891469 124.2032115 -41.21619311 124.29339836 -43.84350586 124.38256836 C-47.63925473 124.51156761 -51.43486551 124.64413594 -55.23046875 124.77734375 C-56.38830368 124.81593002 -57.54613861 124.8545163 -58.73905945 124.89427185 C-59.85923965 124.93423782 -60.97941986 124.9742038 -62.13354492 125.01538086 C-63.09951096 125.04869003 -64.06547699 125.08199921 -65.06071472 125.11631775 C-68.34136319 125.29077024 -71.60430233 125.53727472 -74.87850952 125.80300903 C-81.35484187 126.31054681 -87.81765283 126.57825946 -94.31030273 126.76147461 C-95.4993946 126.79745915 -96.68848646 126.8334437 -97.91361141 126.87051868 C-101.15751868 126.96796081 -104.40149122 127.06264185 -107.64552069 127.15591145 C-110.40996977 127.23584742 -113.17435228 127.31796976 -115.93873763 127.40007555 C-124.13656116 127.64350029 -132.3345541 127.88081931 -140.53261185 128.11620712 C-144.41840047 128.22778329 -148.30416573 128.34015018 -152.18992382 128.452784 C-190.48456672 129.5626351 -228.77973818 130.63119499 -267.08208084 131.44215775 C-269.70861304 131.49779922 -272.33512659 131.55426142 -274.9616394 131.61080933 C-285.48071757 131.83526071 -296.00013108 132.02848753 -306.52011108 132.20535278 C-310.85682849 132.27869783 -315.19339125 132.3580636 -319.52993774 132.44088745 C-379.5064889 133.57450377 -439.49107266 133.50081939 -499.4759011 133.49768811 C-510.33380043 133.49730684 -521.19166976 133.50508181 -532.04956055 133.51831055 C-608.3645636 133.60952555 -684.63880968 133.07156161 -768.03093171 131.507779 C-776.60145836 131.34831766 -785.17218382 131.20647306 -793.74311829 131.07087708 C-819.48010333 130.65976563 -845.19549062 130.12982833 -870.91409326 129.06539464 C-874.91447658 128.90136268 -878.91516669 128.74510681 -882.91581726 128.5877533 C-890.44535902 128.29056183 -897.97463878 127.9872432 -905.50382823 127.68126911 C-914.74256892 127.30612405 -923.98163294 126.93918994 -933.22070312 126.57226562 C-943.0395017 126.18209944 -952.8582599 125.79102293 -962.67681885 125.39486694 C-976.67487962 124.83043808 -990.67290971 124.2706425 -1004.67285156 123.75439453 C-1029.89192287 122.82306164 -1055.08689054 121.71802839 -1080.27884293 120.21699905 C-1082.95807511 120.05755614 -1085.63740004 119.89974477 -1088.31674194 119.74215698 C-1183.32279125 114.13945532 -1279.06086937 108.1221447 -1459.984375 66.359375 C-1461.75 64.3125 -1461.75 64.3125 -1462.3125 60.6875 C-1458.30023983 52.02101804 -1449.32841186 48.46777792 -1440.75 45.3125 C-1433.84534051 42.97028335 -1426.81457862 41.10327217 -1419.75 39.3125 C-1418.79480469 39.07031738 -1417.83960938 38.82813477 -1416.85546875 38.57861328 C-1333.08433215 17.81613125 -1243.84611256 13.43729007 -1059.75 1.3125 C-1058.92683289 1.26731483 -1058.10366577 1.22212967 -1057.2555542 1.17557526 C-953.83245055 -4.48922448 -850.29644399 -7.43926144 -746.75 -9.6875 C-745.88798981 -9.70633995 -745.02597961 -9.7251799 -744.1378479 -9.74459076 C-726.18906835 -10.13674925 -708.24054802 -10.43538222 -690.28857422 -10.63604736 C-686.07525543 -10.68333751 -681.86197966 -10.73393302 -677.64870167 -10.78471184 C-561.59268607 -12.1792392 -445.52936408 -12.17729941 0 0 Z " fill="#74BF42" transform="translate(1769.75,1674.6875)"/>
<path d="M0 0 C11.59747432 1.21526871 22.99906793 2.92521168 34.4375 5.1875 C35.21081665 5.33928711 35.9841333 5.49107422 36.78088379 5.64746094 C90.95469398 16.33830773 90.95469398 16.33830773 102 29 C103.375 31.9375 103.375 31.9375 103 35 C93.2043972 50.37317023 65.68509114 54.098224 49.52905273 57.6796875 C35.51390763 60.72838544 21.41516714 63.19739789 7.25 65.4375 C6.00330032 65.63510422 6.00330032 65.63510422 4.73141479 65.83670044 C2.36867731 66.20819451 0.00500394 66.57270773 -2.359375 66.93359375 C-3.05999557 67.04259003 -3.76061615 67.1515863 -4.48246765 67.2638855 C-8.01963893 67.79200492 -11.42315357 68.11787531 -15 68 C-15.18205117 63.50940453 -14.58067253 59.92575902 -13.3125 55.625 C-11.37775473 48.81133188 -9.90229243 41.94113113 -8.5 35 C-6.87415058 26.99169417 -5.09606359 19.08805709 -2.89453125 11.21875 C-2.20858105 8.75052746 -1.56178139 6.28428198 -0.9440918 3.79882812 C-0.6325415 2.54521484 -0.32099121 1.29160156 0 0 Z " fill="#74BF43" transform="translate(2093,1703)"/>
</svg>
